<mxfile host="app.diagrams.net" agent="Mozilla/5.0 (Windows NT 10.0; Win64; x64) AppleWebKit/537.36 (KHTML, like Gecko) Chrome/129.0.0.0 Safari/537.36" version="24.7.17">
  <diagram name="Pagina-1" id="WgW28uKz9br-Brw7BvRS">
    <mxGraphModel dx="2927" dy="2283" grid="1" gridSize="10" guides="1" tooltips="1" connect="1" arrows="1" fold="1" page="1" pageScale="1" pageWidth="827" pageHeight="1169" background="#ffffff" math="0" shadow="0">
      <root>
        <mxCell id="0" />
        <mxCell id="1" parent="0" />
        <mxCell id="e6L_8f4Bxv0aIU29b3-U-6" value="" style="ellipse;shape=doubleEllipse;whiteSpace=wrap;html=1;aspect=fixed;" parent="1" vertex="1">
          <mxGeometry x="-140" y="1108" width="61" height="61" as="geometry" />
        </mxCell>
        <mxCell id="9_uhdU1WOZ26FYubUej9-77" value="" style="ellipse;whiteSpace=wrap;html=1;aspect=fixed;" parent="1" vertex="1">
          <mxGeometry x="22.25" y="715" width="55.5" height="55.5" as="geometry" />
        </mxCell>
        <mxCell id="9_uhdU1WOZ26FYubUej9-138" style="edgeStyle=orthogonalEdgeStyle;rounded=0;orthogonalLoop=1;jettySize=auto;html=1;exitX=1;exitY=1;exitDx=0;exitDy=0;entryX=0;entryY=0.5;entryDx=0;entryDy=0;" parent="1" source="9_uhdU1WOZ26FYubUej9-35" target="9_uhdU1WOZ26FYubUej9-127" edge="1">
          <mxGeometry relative="1" as="geometry">
            <Array as="points">
              <mxPoint x="-590" y="1137" />
            </Array>
          </mxGeometry>
        </mxCell>
        <mxCell id="9_uhdU1WOZ26FYubUej9-169" style="edgeStyle=orthogonalEdgeStyle;rounded=0;orthogonalLoop=1;jettySize=auto;html=1;exitX=0.5;exitY=1;exitDx=0;exitDy=0;entryX=0;entryY=0.5;entryDx=0;entryDy=0;" parent="1" source="9_uhdU1WOZ26FYubUej9-35" target="9_uhdU1WOZ26FYubUej9-157" edge="1">
          <mxGeometry relative="1" as="geometry">
            <mxPoint x="-680" y="1515.594388521634" as="targetPoint" />
          </mxGeometry>
        </mxCell>
        <mxCell id="9_uhdU1WOZ26FYubUej9-35" value="" style="ellipse;whiteSpace=wrap;html=1;aspect=fixed;" parent="1" vertex="1">
          <mxGeometry x="-637.75" y="569" width="55.5" height="55.5" as="geometry" />
        </mxCell>
        <mxCell id="9_uhdU1WOZ26FYubUej9-33" value="" style="ellipse;whiteSpace=wrap;html=1;aspect=fixed;" parent="1" vertex="1">
          <mxGeometry x="-177.75" y="114.5" width="55.5" height="55.5" as="geometry" />
        </mxCell>
        <mxCell id="9_uhdU1WOZ26FYubUej9-31" value="" style="ellipse;whiteSpace=wrap;html=1;aspect=fixed;" parent="1" vertex="1">
          <mxGeometry x="-379" y="114.75" width="55.5" height="55.5" as="geometry" />
        </mxCell>
        <mxCell id="9_uhdU1WOZ26FYubUej9-238" style="edgeStyle=orthogonalEdgeStyle;rounded=0;orthogonalLoop=1;jettySize=auto;html=1;exitX=0.5;exitY=0;exitDx=0;exitDy=0;entryX=0;entryY=0.5;entryDx=0;entryDy=0;" parent="1" source="9_uhdU1WOZ26FYubUej9-35" target="hFTQxjm5SU2RdiJBIE2X-9" edge="1">
          <mxGeometry relative="1" as="geometry">
            <mxPoint x="16.749999999995907" y="-169.5" as="targetPoint" />
            <Array as="points">
              <mxPoint x="-610" y="-160" />
              <mxPoint x="454" y="-160" />
              <mxPoint x="454" y="380" />
              <mxPoint x="1490" y="380" />
            </Array>
          </mxGeometry>
        </mxCell>
        <mxCell id="hFTQxjm5SU2RdiJBIE2X-6" style="edgeStyle=orthogonalEdgeStyle;rounded=0;orthogonalLoop=1;jettySize=auto;html=1;exitX=0.25;exitY=1;exitDx=0;exitDy=0;entryX=0;entryY=0.5;entryDx=0;entryDy=0;" parent="1" source="9_uhdU1WOZ26FYubUej9-2" target="hFTQxjm5SU2RdiJBIE2X-1" edge="1">
          <mxGeometry relative="1" as="geometry" />
        </mxCell>
        <mxCell id="9_uhdU1WOZ26FYubUej9-2" value="0" style="text;strokeColor=none;fillColor=none;html=1;fontSize=24;fontStyle=1;verticalAlign=middle;align=center;" parent="1" vertex="1">
          <mxGeometry x="-660" y="579.5" width="100" height="35.5" as="geometry" />
        </mxCell>
        <mxCell id="9_uhdU1WOZ26FYubUej9-5" value="" style="edgeStyle=elbowEdgeStyle;elbow=horizontal;endArrow=classic;html=1;curved=0;rounded=0;endSize=8;startSize=8;entryX=0;entryY=0.5;entryDx=0;entryDy=0;" parent="1" target="9_uhdU1WOZ26FYubUej9-35" edge="1">
          <mxGeometry width="50" height="50" relative="1" as="geometry">
            <mxPoint x="-810" y="597" as="sourcePoint" />
            <mxPoint x="-610" y="480" as="targetPoint" />
          </mxGeometry>
        </mxCell>
        <mxCell id="9_uhdU1WOZ26FYubUej9-6" value="start" style="text;strokeColor=none;fillColor=none;html=1;fontSize=24;fontStyle=1;verticalAlign=middle;align=center;" parent="1" vertex="1">
          <mxGeometry x="-759" y="569" width="67" height="15" as="geometry" />
        </mxCell>
        <mxCell id="9_uhdU1WOZ26FYubUej9-10" value="" style="endArrow=classic;html=1;rounded=0;exitX=1;exitY=0;exitDx=0;exitDy=0;entryX=0;entryY=0.5;entryDx=0;entryDy=0;" parent="1" source="9_uhdU1WOZ26FYubUej9-35" target="9_uhdU1WOZ26FYubUej9-31" edge="1">
          <mxGeometry width="50" height="50" relative="1" as="geometry">
            <mxPoint x="-599.02" y="568.6409999999998" as="sourcePoint" />
            <mxPoint x="-389.99999999999727" y="265.5" as="targetPoint" />
            <Array as="points">
              <mxPoint x="-590" y="145" />
            </Array>
          </mxGeometry>
        </mxCell>
        <mxCell id="9_uhdU1WOZ26FYubUej9-11" value="1" style="text;strokeColor=none;fillColor=none;html=1;fontSize=24;fontStyle=1;verticalAlign=middle;align=center;" parent="1" vertex="1">
          <mxGeometry x="-401.25" y="122" width="100" height="40" as="geometry" />
        </mxCell>
        <mxCell id="9_uhdU1WOZ26FYubUej9-15" value="2" style="text;strokeColor=none;fillColor=none;html=1;fontSize=24;fontStyle=1;verticalAlign=middle;align=center;" parent="1" vertex="1">
          <mxGeometry x="-200" y="122.25" width="100" height="40" as="geometry" />
        </mxCell>
        <mxCell id="9_uhdU1WOZ26FYubUej9-16" value="" style="endArrow=classic;html=1;rounded=0;exitX=1;exitY=0.5;exitDx=0;exitDy=0;entryX=0;entryY=0.5;entryDx=0;entryDy=0;" parent="1" source="9_uhdU1WOZ26FYubUej9-31" target="9_uhdU1WOZ26FYubUej9-33" edge="1">
          <mxGeometry width="50" height="50" relative="1" as="geometry">
            <mxPoint x="-420" y="352" as="sourcePoint" />
            <mxPoint x="-180" y="142" as="targetPoint" />
          </mxGeometry>
        </mxCell>
        <mxCell id="9_uhdU1WOZ26FYubUej9-17" value="delim" style="text;strokeColor=none;fillColor=none;html=1;fontSize=24;fontStyle=1;verticalAlign=middle;align=center;" parent="1" vertex="1">
          <mxGeometry x="-310" y="102" width="100" height="40" as="geometry" />
        </mxCell>
        <mxCell id="9_uhdU1WOZ26FYubUej9-19" value="" style="endArrow=classic;html=1;rounded=0;exitX=1;exitY=0;exitDx=0;exitDy=0;entryX=0;entryY=0;entryDx=0;entryDy=0;" parent="1" source="9_uhdU1WOZ26FYubUej9-33" target="9_uhdU1WOZ26FYubUej9-33" edge="1">
          <mxGeometry width="50" height="50" relative="1" as="geometry">
            <mxPoint x="-128.43324317381212" y="120.50324317381211" as="sourcePoint" />
            <mxPoint x="-175" y="140" as="targetPoint" />
            <Array as="points">
              <mxPoint x="-130" y="50" />
              <mxPoint x="-170" y="50" />
            </Array>
          </mxGeometry>
        </mxCell>
        <mxCell id="9_uhdU1WOZ26FYubUej9-20" value="delim" style="text;strokeColor=none;fillColor=none;html=1;fontSize=24;fontStyle=1;verticalAlign=middle;align=center;" parent="1" vertex="1">
          <mxGeometry x="-200" width="100" height="40" as="geometry" />
        </mxCell>
        <mxCell id="9_uhdU1WOZ26FYubUej9-22" value="" style="ellipse;shape=doubleEllipse;whiteSpace=wrap;html=1;aspect=fixed;" parent="1" vertex="1">
          <mxGeometry x="19.5" y="113" width="61" height="61" as="geometry" />
        </mxCell>
        <mxCell id="9_uhdU1WOZ26FYubUej9-23" value="3" style="text;strokeColor=none;fillColor=none;html=1;fontSize=24;fontStyle=1;verticalAlign=middle;align=center;" parent="1" vertex="1">
          <mxGeometry y="123.5" width="100" height="40" as="geometry" />
        </mxCell>
        <mxCell id="9_uhdU1WOZ26FYubUej9-24" value="" style="endArrow=classic;html=1;rounded=0;entryX=0;entryY=0.5;entryDx=0;entryDy=0;exitX=1;exitY=0.5;exitDx=0;exitDy=0;" parent="1" source="9_uhdU1WOZ26FYubUej9-33" target="9_uhdU1WOZ26FYubUej9-22" edge="1">
          <mxGeometry width="50" height="50" relative="1" as="geometry">
            <mxPoint x="-117.12100000000032" y="142.14699999999982" as="sourcePoint" />
            <mxPoint x="-250" y="230" as="targetPoint" />
          </mxGeometry>
        </mxCell>
        <mxCell id="9_uhdU1WOZ26FYubUej9-27" value="other" style="text;strokeColor=none;fillColor=none;html=1;fontSize=24;fontStyle=1;verticalAlign=middle;align=center;" parent="1" vertex="1">
          <mxGeometry x="-100" y="100" width="100" height="40" as="geometry" />
        </mxCell>
        <mxCell id="9_uhdU1WOZ26FYubUej9-28" value="&lt;font style=&quot;font-size: 36px;&quot;&gt;*&lt;/font&gt;" style="text;html=1;align=center;verticalAlign=middle;whiteSpace=wrap;rounded=0;" parent="1" vertex="1">
          <mxGeometry x="80.5" y="90" width="60" height="30" as="geometry" />
        </mxCell>
        <mxCell id="9_uhdU1WOZ26FYubUej9-36" value="" style="ellipse;whiteSpace=wrap;html=1;aspect=fixed;" parent="1" vertex="1">
          <mxGeometry x="-379" y="415" width="55.5" height="55.5" as="geometry" />
        </mxCell>
        <mxCell id="9_uhdU1WOZ26FYubUej9-37" value="4" style="text;strokeColor=none;fillColor=none;html=1;fontSize=24;fontStyle=1;verticalAlign=middle;align=center;" parent="1" vertex="1">
          <mxGeometry x="-401.25" y="422.75" width="100" height="40" as="geometry" />
        </mxCell>
        <mxCell id="9_uhdU1WOZ26FYubUej9-38" value="" style="endArrow=classic;html=1;rounded=0;exitX=1;exitY=0;exitDx=0;exitDy=0;entryX=0;entryY=0.5;entryDx=0;entryDy=0;" parent="1" source="9_uhdU1WOZ26FYubUej9-35" target="9_uhdU1WOZ26FYubUej9-36" edge="1">
          <mxGeometry width="50" height="50" relative="1" as="geometry">
            <mxPoint x="-280" y="505" as="sourcePoint" />
            <mxPoint x="-410" y="365" as="targetPoint" />
            <Array as="points">
              <mxPoint x="-550" y="577" />
              <mxPoint x="-550" y="443" />
            </Array>
          </mxGeometry>
        </mxCell>
        <mxCell id="9_uhdU1WOZ26FYubUej9-39" value="" style="endArrow=classic;html=1;rounded=0;exitX=1;exitY=0.5;exitDx=0;exitDy=0;entryX=0;entryY=0.5;entryDx=0;entryDy=0;" parent="1" source="9_uhdU1WOZ26FYubUej9-36" target="9_uhdU1WOZ26FYubUej9-40" edge="1">
          <mxGeometry width="50" height="50" relative="1" as="geometry">
            <mxPoint x="-310" y="485" as="sourcePoint" />
            <mxPoint x="-180" y="443" as="targetPoint" />
          </mxGeometry>
        </mxCell>
        <mxCell id="9_uhdU1WOZ26FYubUej9-40" value="" style="ellipse;whiteSpace=wrap;html=1;aspect=fixed;" parent="1" vertex="1">
          <mxGeometry x="-177.75" y="415" width="55.5" height="55.5" as="geometry" />
        </mxCell>
        <mxCell id="9_uhdU1WOZ26FYubUej9-42" value="" style="endArrow=classic;html=1;rounded=0;exitX=1;exitY=0.5;exitDx=0;exitDy=0;entryX=0;entryY=0.5;entryDx=0;entryDy=0;" parent="1" source="9_uhdU1WOZ26FYubUej9-40" target="9_uhdU1WOZ26FYubUej9-46" edge="1">
          <mxGeometry width="50" height="50" relative="1" as="geometry">
            <mxPoint x="-390" y="695" as="sourcePoint" />
            <mxPoint x="22.25000000002001" y="442.75" as="targetPoint" />
          </mxGeometry>
        </mxCell>
        <mxCell id="9_uhdU1WOZ26FYubUej9-43" value="5" style="text;strokeColor=none;fillColor=none;html=1;fontSize=24;fontStyle=1;verticalAlign=middle;align=center;" parent="1" vertex="1">
          <mxGeometry x="-200" y="422.75" width="100" height="40" as="geometry" />
        </mxCell>
        <mxCell id="9_uhdU1WOZ26FYubUej9-46" value="" style="ellipse;shape=doubleEllipse;whiteSpace=wrap;html=1;aspect=fixed;" parent="1" vertex="1">
          <mxGeometry x="19.5" y="413" width="61" height="61" as="geometry" />
        </mxCell>
        <mxCell id="9_uhdU1WOZ26FYubUej9-47" value="6" style="text;strokeColor=none;fillColor=none;html=1;fontSize=24;fontStyle=1;verticalAlign=middle;align=center;" parent="1" vertex="1">
          <mxGeometry x="1" y="423.5" width="100" height="40" as="geometry" />
        </mxCell>
        <mxCell id="9_uhdU1WOZ26FYubUej9-48" value="&lt;font style=&quot;font-size: 36px;&quot;&gt;*&lt;/font&gt;" style="text;html=1;align=center;verticalAlign=middle;whiteSpace=wrap;rounded=0;" parent="1" vertex="1">
          <mxGeometry x="80.5" y="393.5" width="60" height="30" as="geometry" />
        </mxCell>
        <mxCell id="9_uhdU1WOZ26FYubUej9-49" value="letter_" style="text;strokeColor=none;fillColor=none;html=1;fontSize=24;fontStyle=1;verticalAlign=middle;align=center;" parent="1" vertex="1">
          <mxGeometry x="-306" y="405" width="100" height="40" as="geometry" />
        </mxCell>
        <mxCell id="9_uhdU1WOZ26FYubUej9-50" value="" style="endArrow=classic;html=1;rounded=0;exitX=1;exitY=0;exitDx=0;exitDy=0;entryX=0;entryY=0;entryDx=0;entryDy=0;" parent="1" source="9_uhdU1WOZ26FYubUej9-40" target="9_uhdU1WOZ26FYubUej9-40" edge="1">
          <mxGeometry width="50" height="50" relative="1" as="geometry">
            <mxPoint x="-130" y="413" as="sourcePoint" />
            <mxPoint x="-170" y="413" as="targetPoint" />
            <Array as="points">
              <mxPoint x="-130" y="340" />
              <mxPoint x="-170" y="340" />
            </Array>
          </mxGeometry>
        </mxCell>
        <mxCell id="9_uhdU1WOZ26FYubUej9-51" value="letter_ or number" style="text;strokeColor=none;fillColor=none;html=1;fontSize=24;fontStyle=1;verticalAlign=middle;align=center;" parent="1" vertex="1">
          <mxGeometry x="-200" y="295" width="100" height="40" as="geometry" />
        </mxCell>
        <mxCell id="9_uhdU1WOZ26FYubUej9-53" value="other" style="text;strokeColor=none;fillColor=none;html=1;fontSize=24;fontStyle=1;verticalAlign=middle;align=center;" parent="1" vertex="1">
          <mxGeometry x="-110" y="405" width="100" height="40" as="geometry" />
        </mxCell>
        <mxCell id="9_uhdU1WOZ26FYubUej9-55" value="return &amp;lt;ID, puntatore_in_tabella_simboli&amp;gt;" style="text;strokeColor=none;fillColor=none;html=1;fontSize=24;fontStyle=1;verticalAlign=middle;align=center;" parent="1" vertex="1">
          <mxGeometry x="364" y="422.75" width="100" height="40" as="geometry" />
        </mxCell>
        <mxCell id="9_uhdU1WOZ26FYubUej9-65" value="" style="endArrow=classic;html=1;rounded=0;exitX=0.75;exitY=1;exitDx=0;exitDy=0;entryX=0;entryY=0.5;entryDx=0;entryDy=0;" parent="1" source="9_uhdU1WOZ26FYubUej9-2" target="9_uhdU1WOZ26FYubUej9-66" edge="1">
          <mxGeometry width="50" height="50" relative="1" as="geometry">
            <mxPoint x="-540" y="665.2185714285715" as="sourcePoint" />
            <mxPoint x="-390" y="745" as="targetPoint" />
            <Array as="points">
              <mxPoint x="-550" y="615" />
              <mxPoint x="-550" y="745" />
            </Array>
          </mxGeometry>
        </mxCell>
        <mxCell id="9_uhdU1WOZ26FYubUej9-66" value="" style="ellipse;whiteSpace=wrap;html=1;aspect=fixed;" parent="1" vertex="1">
          <mxGeometry x="-369" y="715" width="55.5" height="55.5" as="geometry" />
        </mxCell>
        <mxCell id="9_uhdU1WOZ26FYubUej9-67" value="7" style="text;strokeColor=none;fillColor=none;html=1;fontSize=24;fontStyle=1;verticalAlign=middle;align=center;" parent="1" vertex="1">
          <mxGeometry x="-391.25" y="722.75" width="100" height="40" as="geometry" />
        </mxCell>
        <mxCell id="9_uhdU1WOZ26FYubUej9-68" value="" style="endArrow=classic;html=1;rounded=0;entryX=0;entryY=0.5;entryDx=0;entryDy=0;exitX=1;exitY=0.5;exitDx=0;exitDy=0;" parent="1" source="9_uhdU1WOZ26FYubUej9-66" target="9_uhdU1WOZ26FYubUej9-69" edge="1">
          <mxGeometry width="50" height="50" relative="1" as="geometry">
            <mxPoint x="-310" y="743" as="sourcePoint" />
            <mxPoint x="-167" y="743" as="targetPoint" />
          </mxGeometry>
        </mxCell>
        <mxCell id="9_uhdU1WOZ26FYubUej9-69" value="" style="ellipse;whiteSpace=wrap;html=1;aspect=fixed;" parent="1" vertex="1">
          <mxGeometry x="-177.75" y="715" width="55.5" height="55.5" as="geometry" />
        </mxCell>
        <mxCell id="GGLiONGw6-5u2sI7iCdK-1" style="edgeStyle=orthogonalEdgeStyle;rounded=0;orthogonalLoop=1;jettySize=auto;html=1;exitX=0.5;exitY=0;exitDx=0;exitDy=0;entryX=0;entryY=0.5;entryDx=0;entryDy=0;" parent="1" source="9_uhdU1WOZ26FYubUej9-70" target="hFTQxjm5SU2RdiJBIE2X-10" edge="1">
          <mxGeometry relative="1" as="geometry">
            <Array as="points">
              <mxPoint x="50" y="540" />
              <mxPoint x="1360" y="540" />
              <mxPoint x="1360" y="753" />
            </Array>
          </mxGeometry>
        </mxCell>
        <mxCell id="9_uhdU1WOZ26FYubUej9-70" value="9" style="text;strokeColor=none;fillColor=none;html=1;fontSize=24;fontStyle=1;verticalAlign=middle;align=center;" parent="1" vertex="1">
          <mxGeometry y="722.75" width="100" height="40" as="geometry" />
        </mxCell>
        <mxCell id="9_uhdU1WOZ26FYubUej9-71" value="digit" style="text;strokeColor=none;fillColor=none;html=1;fontSize=24;fontStyle=1;verticalAlign=middle;align=center;" parent="1" vertex="1">
          <mxGeometry x="-300" y="705" width="100" height="40" as="geometry" />
        </mxCell>
        <mxCell id="9_uhdU1WOZ26FYubUej9-72" value="" style="endArrow=classic;html=1;rounded=0;exitX=1;exitY=0;exitDx=0;exitDy=0;entryX=0;entryY=0;entryDx=0;entryDy=0;" parent="1" source="9_uhdU1WOZ26FYubUej9-69" target="9_uhdU1WOZ26FYubUej9-69" edge="1">
          <mxGeometry width="50" height="50" relative="1" as="geometry">
            <mxPoint x="-130" y="713" as="sourcePoint" />
            <mxPoint x="-170" y="713" as="targetPoint" />
            <Array as="points">
              <mxPoint x="-130" y="640" />
              <mxPoint x="-170" y="640" />
            </Array>
          </mxGeometry>
        </mxCell>
        <mxCell id="9_uhdU1WOZ26FYubUej9-73" value="digit" style="text;strokeColor=none;fillColor=none;html=1;fontSize=24;fontStyle=1;verticalAlign=middle;align=center;" parent="1" vertex="1">
          <mxGeometry x="-200" y="595" width="100" height="40" as="geometry" />
        </mxCell>
        <mxCell id="9_uhdU1WOZ26FYubUej9-76" value="" style="endArrow=classic;html=1;rounded=0;exitX=1;exitY=0.5;exitDx=0;exitDy=0;entryX=0;entryY=0.5;entryDx=0;entryDy=0;" parent="1" source="9_uhdU1WOZ26FYubUej9-69" target="9_uhdU1WOZ26FYubUej9-77" edge="1">
          <mxGeometry width="50" height="50" relative="1" as="geometry">
            <mxPoint x="90" y="695" as="sourcePoint" />
            <mxPoint x="30" y="743" as="targetPoint" />
          </mxGeometry>
        </mxCell>
        <mxCell id="9_uhdU1WOZ26FYubUej9-78" value="" style="endArrow=classic;html=1;rounded=0;exitX=0.5;exitY=1;exitDx=0;exitDy=0;entryX=0.5;entryY=1;entryDx=0;entryDy=0;" parent="1" source="9_uhdU1WOZ26FYubUej9-69" target="9_uhdU1WOZ26FYubUej9-111" edge="1">
          <mxGeometry width="50" height="50" relative="1" as="geometry">
            <mxPoint x="-112" y="753" as="sourcePoint" />
            <mxPoint x="1030" y="920" as="targetPoint" />
            <Array as="points">
              <mxPoint x="-150" y="916" />
              <mxPoint x="1041" y="920" />
            </Array>
          </mxGeometry>
        </mxCell>
        <mxCell id="9_uhdU1WOZ26FYubUej9-121" style="edgeStyle=orthogonalEdgeStyle;rounded=0;orthogonalLoop=1;jettySize=auto;html=1;exitX=0.75;exitY=1;exitDx=0;exitDy=0;entryX=0.25;entryY=1;entryDx=0;entryDy=0;" parent="1" source="9_uhdU1WOZ26FYubUej9-80" target="9_uhdU1WOZ26FYubUej9-107" edge="1">
          <mxGeometry relative="1" as="geometry">
            <Array as="points">
              <mxPoint x="-125" y="845" />
              <mxPoint x="419" y="845" />
            </Array>
          </mxGeometry>
        </mxCell>
        <mxCell id="9_uhdU1WOZ26FYubUej9-80" value="8" style="text;strokeColor=none;fillColor=none;html=1;fontSize=24;fontStyle=1;verticalAlign=middle;align=center;" parent="1" vertex="1">
          <mxGeometry x="-200" y="722.75" width="100" height="40" as="geometry" />
        </mxCell>
        <mxCell id="9_uhdU1WOZ26FYubUej9-81" value="." style="text;strokeColor=none;fillColor=none;html=1;fontSize=24;fontStyle=1;verticalAlign=middle;align=center;" parent="1" vertex="1">
          <mxGeometry x="-110" y="705" width="100" height="40" as="geometry" />
        </mxCell>
        <mxCell id="9_uhdU1WOZ26FYubUej9-93" style="edgeStyle=orthogonalEdgeStyle;rounded=0;orthogonalLoop=1;jettySize=auto;html=1;exitX=1;exitY=0.5;exitDx=0;exitDy=0;" parent="1" source="9_uhdU1WOZ26FYubUej9-82" edge="1">
          <mxGeometry relative="1" as="geometry">
            <mxPoint x="609.9999999999995" y="742.9230769230767" as="targetPoint" />
          </mxGeometry>
        </mxCell>
        <mxCell id="9_uhdU1WOZ26FYubUej9-82" value="" style="ellipse;whiteSpace=wrap;html=1;aspect=fixed;" parent="1" vertex="1">
          <mxGeometry x="416.5" y="715" width="55.5" height="55.5" as="geometry" />
        </mxCell>
        <mxCell id="9_uhdU1WOZ26FYubUej9-83" value="" style="endArrow=classic;html=1;rounded=0;entryX=0;entryY=0.5;entryDx=0;entryDy=0;exitX=1;exitY=0.5;exitDx=0;exitDy=0;" parent="1" source="9_uhdU1WOZ26FYubUej9-77" target="9_uhdU1WOZ26FYubUej9-84" edge="1">
          <mxGeometry width="50" height="50" relative="1" as="geometry">
            <mxPoint x="59.99999999999045" y="742.75" as="sourcePoint" />
            <mxPoint x="227.25" y="743" as="targetPoint" />
          </mxGeometry>
        </mxCell>
        <mxCell id="9_uhdU1WOZ26FYubUej9-84" value="" style="ellipse;whiteSpace=wrap;html=1;aspect=fixed;" parent="1" vertex="1">
          <mxGeometry x="216.5" y="715" width="55.5" height="55.5" as="geometry" />
        </mxCell>
        <mxCell id="9_uhdU1WOZ26FYubUej9-85" value="digit" style="text;strokeColor=none;fillColor=none;html=1;fontSize=24;fontStyle=1;verticalAlign=middle;align=center;" parent="1" vertex="1">
          <mxGeometry x="94.25" y="705" width="100" height="40" as="geometry" />
        </mxCell>
        <mxCell id="9_uhdU1WOZ26FYubUej9-86" value="" style="endArrow=classic;html=1;rounded=0;exitX=1;exitY=0;exitDx=0;exitDy=0;entryX=0;entryY=0;entryDx=0;entryDy=0;" parent="1" source="9_uhdU1WOZ26FYubUej9-84" target="9_uhdU1WOZ26FYubUej9-84" edge="1">
          <mxGeometry width="50" height="50" relative="1" as="geometry">
            <mxPoint x="264.25" y="713" as="sourcePoint" />
            <mxPoint x="224.25" y="713" as="targetPoint" />
            <Array as="points">
              <mxPoint x="264.25" y="640" />
              <mxPoint x="224.25" y="640" />
            </Array>
          </mxGeometry>
        </mxCell>
        <mxCell id="9_uhdU1WOZ26FYubUej9-87" value="digit" style="text;strokeColor=none;fillColor=none;html=1;fontSize=24;fontStyle=1;verticalAlign=middle;align=center;" parent="1" vertex="1">
          <mxGeometry x="194.25" y="595" width="100" height="40" as="geometry" />
        </mxCell>
        <mxCell id="9_uhdU1WOZ26FYubUej9-88" value="" style="endArrow=classic;html=1;rounded=0;exitX=1;exitY=0.5;exitDx=0;exitDy=0;entryX=0;entryY=0.5;entryDx=0;entryDy=0;" parent="1" source="9_uhdU1WOZ26FYubUej9-84" target="9_uhdU1WOZ26FYubUej9-82" edge="1">
          <mxGeometry width="50" height="50" relative="1" as="geometry">
            <mxPoint x="484.25" y="695" as="sourcePoint" />
            <mxPoint x="424.25" y="743" as="targetPoint" />
          </mxGeometry>
        </mxCell>
        <mxCell id="9_uhdU1WOZ26FYubUej9-89" value="10" style="text;strokeColor=none;fillColor=none;html=1;fontSize=24;fontStyle=1;verticalAlign=middle;align=center;" parent="1" vertex="1">
          <mxGeometry x="194.25" y="722.75" width="100" height="40" as="geometry" />
        </mxCell>
        <mxCell id="9_uhdU1WOZ26FYubUej9-90" value="E" style="text;strokeColor=none;fillColor=none;html=1;fontSize=24;fontStyle=1;verticalAlign=middle;align=center;" parent="1" vertex="1">
          <mxGeometry x="284.25" y="705" width="100" height="40" as="geometry" />
        </mxCell>
        <mxCell id="9_uhdU1WOZ26FYubUej9-91" value="" style="endArrow=classic;html=1;rounded=0;exitX=0.5;exitY=1;exitDx=0;exitDy=0;entryX=0;entryY=1;entryDx=0;entryDy=0;" parent="1" source="9_uhdU1WOZ26FYubUej9-84" target="9_uhdU1WOZ26FYubUej9-111" edge="1">
          <mxGeometry width="50" height="50" relative="1" as="geometry">
            <mxPoint x="248.5" y="770.5" as="sourcePoint" />
            <mxPoint x="417.5" y="915.5" as="targetPoint" />
            <Array as="points">
              <mxPoint x="244" y="880" />
              <mxPoint x="1020" y="880" />
            </Array>
          </mxGeometry>
        </mxCell>
        <mxCell id="9_uhdU1WOZ26FYubUej9-94" value="" style="ellipse;whiteSpace=wrap;html=1;aspect=fixed;" parent="1" vertex="1">
          <mxGeometry x="610" y="715" width="55.5" height="55.5" as="geometry" />
        </mxCell>
        <mxCell id="9_uhdU1WOZ26FYubUej9-95" value="+ o -" style="text;strokeColor=none;fillColor=none;html=1;fontSize=24;fontStyle=1;verticalAlign=middle;align=center;" parent="1" vertex="1">
          <mxGeometry x="490" y="705" width="100" height="40" as="geometry" />
        </mxCell>
        <mxCell id="9_uhdU1WOZ26FYubUej9-102" value="" style="endArrow=classic;html=1;rounded=0;entryX=0;entryY=0.5;entryDx=0;entryDy=0;exitX=1;exitY=0.5;exitDx=0;exitDy=0;" parent="1" source="9_uhdU1WOZ26FYubUej9-94" target="9_uhdU1WOZ26FYubUej9-103" edge="1">
          <mxGeometry width="50" height="50" relative="1" as="geometry">
            <mxPoint x="665.5" y="743" as="sourcePoint" />
            <mxPoint x="814.75" y="743" as="targetPoint" />
          </mxGeometry>
        </mxCell>
        <mxCell id="9_uhdU1WOZ26FYubUej9-113" style="edgeStyle=orthogonalEdgeStyle;rounded=0;orthogonalLoop=1;jettySize=auto;html=1;exitX=1;exitY=0.5;exitDx=0;exitDy=0;" parent="1" source="9_uhdU1WOZ26FYubUej9-103" target="9_uhdU1WOZ26FYubUej9-111" edge="1">
          <mxGeometry relative="1" as="geometry" />
        </mxCell>
        <mxCell id="9_uhdU1WOZ26FYubUej9-103" value="" style="ellipse;whiteSpace=wrap;html=1;aspect=fixed;" parent="1" vertex="1">
          <mxGeometry x="804" y="715" width="55.5" height="55.5" as="geometry" />
        </mxCell>
        <mxCell id="9_uhdU1WOZ26FYubUej9-104" value="digit" style="text;strokeColor=none;fillColor=none;html=1;fontSize=24;fontStyle=1;verticalAlign=middle;align=center;" parent="1" vertex="1">
          <mxGeometry x="681.75" y="705" width="100" height="40" as="geometry" />
        </mxCell>
        <mxCell id="9_uhdU1WOZ26FYubUej9-105" value="" style="endArrow=classic;html=1;rounded=0;exitX=1;exitY=0;exitDx=0;exitDy=0;entryX=0;entryY=0;entryDx=0;entryDy=0;" parent="1" source="9_uhdU1WOZ26FYubUej9-103" target="9_uhdU1WOZ26FYubUej9-103" edge="1">
          <mxGeometry width="50" height="50" relative="1" as="geometry">
            <mxPoint x="851.75" y="713" as="sourcePoint" />
            <mxPoint x="811.75" y="713" as="targetPoint" />
            <Array as="points">
              <mxPoint x="851.75" y="640" />
              <mxPoint x="811.75" y="640" />
            </Array>
          </mxGeometry>
        </mxCell>
        <mxCell id="9_uhdU1WOZ26FYubUej9-106" value="digit" style="text;strokeColor=none;fillColor=none;html=1;fontSize=24;fontStyle=1;verticalAlign=middle;align=center;" parent="1" vertex="1">
          <mxGeometry x="781.75" y="595" width="100" height="40" as="geometry" />
        </mxCell>
        <mxCell id="9_uhdU1WOZ26FYubUej9-122" style="edgeStyle=orthogonalEdgeStyle;rounded=0;orthogonalLoop=1;jettySize=auto;html=1;exitX=0.75;exitY=1;exitDx=0;exitDy=0;entryX=0.25;entryY=1;entryDx=0;entryDy=0;" parent="1" source="9_uhdU1WOZ26FYubUej9-107" target="9_uhdU1WOZ26FYubUej9-117" edge="1">
          <mxGeometry relative="1" as="geometry">
            <Array as="points">
              <mxPoint x="469" y="845" />
              <mxPoint x="807" y="845" />
            </Array>
          </mxGeometry>
        </mxCell>
        <mxCell id="hFTQxjm5SU2RdiJBIE2X-13" style="edgeStyle=orthogonalEdgeStyle;rounded=0;orthogonalLoop=1;jettySize=auto;html=1;exitX=0.5;exitY=0;exitDx=0;exitDy=0;" parent="1" source="9_uhdU1WOZ26FYubUej9-107" edge="1">
          <mxGeometry relative="1" as="geometry">
            <mxPoint x="1480" y="750.0000000000005" as="targetPoint" />
            <Array as="points">
              <mxPoint x="444" y="540" />
              <mxPoint x="1360" y="540" />
              <mxPoint x="1360" y="751" />
            </Array>
          </mxGeometry>
        </mxCell>
        <mxCell id="9_uhdU1WOZ26FYubUej9-107" value="11" style="text;strokeColor=none;fillColor=none;html=1;fontSize=24;fontStyle=1;verticalAlign=middle;align=center;" parent="1" vertex="1">
          <mxGeometry x="394.25" y="722.75" width="100" height="40" as="geometry" />
        </mxCell>
        <mxCell id="hFTQxjm5SU2RdiJBIE2X-12" style="edgeStyle=orthogonalEdgeStyle;rounded=0;orthogonalLoop=1;jettySize=auto;html=1;exitX=0.5;exitY=0;exitDx=0;exitDy=0;entryX=0;entryY=0.5;entryDx=0;entryDy=0;" parent="1" source="9_uhdU1WOZ26FYubUej9-108" target="hFTQxjm5SU2RdiJBIE2X-9" edge="1">
          <mxGeometry relative="1" as="geometry">
            <mxPoint x="1440" y="730" as="targetPoint" />
            <Array as="points">
              <mxPoint x="638" y="540" />
              <mxPoint x="1360" y="540" />
              <mxPoint x="1360" y="753" />
            </Array>
          </mxGeometry>
        </mxCell>
        <mxCell id="9_uhdU1WOZ26FYubUej9-108" value="12" style="text;strokeColor=none;fillColor=none;html=1;fontSize=24;fontStyle=1;verticalAlign=middle;align=center;" parent="1" vertex="1">
          <mxGeometry x="587.75" y="722.75" width="100" height="40" as="geometry" />
        </mxCell>
        <mxCell id="9_uhdU1WOZ26FYubUej9-111" value="" style="ellipse;shape=doubleEllipse;whiteSpace=wrap;html=1;aspect=fixed;" parent="1" vertex="1">
          <mxGeometry x="1010.5" y="712.25" width="61" height="61" as="geometry" />
        </mxCell>
        <mxCell id="9_uhdU1WOZ26FYubUej9-114" value="other" style="text;strokeColor=none;fillColor=none;html=1;fontSize=24;fontStyle=1;verticalAlign=middle;align=center;" parent="1" vertex="1">
          <mxGeometry x="890" y="705" width="100" height="40" as="geometry" />
        </mxCell>
        <mxCell id="9_uhdU1WOZ26FYubUej9-115" value="other" style="text;strokeColor=none;fillColor=none;html=1;fontSize=24;fontStyle=1;verticalAlign=middle;align=center;" parent="1" vertex="1">
          <mxGeometry x="350" y="845" width="100" height="40" as="geometry" />
        </mxCell>
        <mxCell id="9_uhdU1WOZ26FYubUej9-116" value="other" style="text;strokeColor=none;fillColor=none;html=1;fontSize=24;fontStyle=1;verticalAlign=middle;align=center;" parent="1" vertex="1">
          <mxGeometry x="-110" y="875" width="100" height="40" as="geometry" />
        </mxCell>
        <mxCell id="9_uhdU1WOZ26FYubUej9-117" value="13" style="text;strokeColor=none;fillColor=none;html=1;fontSize=24;fontStyle=1;verticalAlign=middle;align=center;" parent="1" vertex="1">
          <mxGeometry x="781.75" y="722.75" width="100" height="40" as="geometry" />
        </mxCell>
        <mxCell id="9_uhdU1WOZ26FYubUej9-118" value="14" style="text;strokeColor=none;fillColor=none;html=1;fontSize=24;fontStyle=1;verticalAlign=middle;align=center;" parent="1" vertex="1">
          <mxGeometry x="991" y="722.75" width="100" height="40" as="geometry" />
        </mxCell>
        <mxCell id="9_uhdU1WOZ26FYubUej9-123" value="E" style="text;strokeColor=none;fillColor=none;html=1;fontSize=24;fontStyle=1;verticalAlign=middle;align=center;" parent="1" vertex="1">
          <mxGeometry x="94.25" y="805" width="100" height="40" as="geometry" />
        </mxCell>
        <mxCell id="9_uhdU1WOZ26FYubUej9-124" value="digit" style="text;strokeColor=none;fillColor=none;html=1;fontSize=24;fontStyle=1;verticalAlign=middle;align=center;" parent="1" vertex="1">
          <mxGeometry x="587.75" y="805" width="100" height="40" as="geometry" />
        </mxCell>
        <mxCell id="9_uhdU1WOZ26FYubUej9-125" value="&lt;font style=&quot;font-size: 36px;&quot;&gt;*&lt;/font&gt;" style="text;html=1;align=center;verticalAlign=middle;whiteSpace=wrap;rounded=0;" parent="1" vertex="1">
          <mxGeometry x="1071.5" y="692.75" width="60" height="30" as="geometry" />
        </mxCell>
        <mxCell id="9_uhdU1WOZ26FYubUej9-127" value="" style="ellipse;whiteSpace=wrap;html=1;aspect=fixed;" parent="1" vertex="1">
          <mxGeometry x="-369" y="1109.75" width="55.5" height="55.5" as="geometry" />
        </mxCell>
        <mxCell id="9_uhdU1WOZ26FYubUej9-135" value="" style="endArrow=classic;html=1;rounded=0;exitX=1;exitY=0.5;exitDx=0;exitDy=0;entryX=0;entryY=0.5;entryDx=0;entryDy=0;" parent="1" source="9_uhdU1WOZ26FYubUej9-127" target="e6L_8f4Bxv0aIU29b3-U-6" edge="1">
          <mxGeometry width="50" height="50" relative="1" as="geometry">
            <mxPoint x="-200" y="1160" as="sourcePoint" />
            <mxPoint x="-145" y="1139" as="targetPoint" />
          </mxGeometry>
        </mxCell>
        <mxCell id="9_uhdU1WOZ26FYubUej9-136" value="separator" style="text;strokeColor=none;fillColor=none;html=1;fontSize=24;fontStyle=1;verticalAlign=middle;align=center;" parent="1" vertex="1">
          <mxGeometry x="-290" y="1095" width="100" height="40" as="geometry" />
        </mxCell>
        <mxCell id="9_uhdU1WOZ26FYubUej9-179" style="edgeStyle=orthogonalEdgeStyle;rounded=0;orthogonalLoop=1;jettySize=auto;html=1;exitX=1;exitY=1;exitDx=0;exitDy=0;entryX=0;entryY=0.5;entryDx=0;entryDy=0;" parent="1" source="9_uhdU1WOZ26FYubUej9-156" target="9_uhdU1WOZ26FYubUej9-173" edge="1">
          <mxGeometry relative="1" as="geometry">
            <Array as="points">
              <mxPoint x="-98" y="1631" />
            </Array>
          </mxGeometry>
        </mxCell>
        <mxCell id="9_uhdU1WOZ26FYubUej9-180" style="edgeStyle=orthogonalEdgeStyle;rounded=0;orthogonalLoop=1;jettySize=auto;html=1;exitX=0;exitY=1;exitDx=0;exitDy=0;entryX=0;entryY=0.5;entryDx=0;entryDy=0;" parent="1" source="9_uhdU1WOZ26FYubUej9-156" target="9_uhdU1WOZ26FYubUej9-177" edge="1">
          <mxGeometry relative="1" as="geometry">
            <Array as="points">
              <mxPoint x="-137" y="1907" />
            </Array>
          </mxGeometry>
        </mxCell>
        <mxCell id="9_uhdU1WOZ26FYubUej9-181" style="edgeStyle=orthogonalEdgeStyle;rounded=0;orthogonalLoop=1;jettySize=auto;html=1;exitX=0.5;exitY=1;exitDx=0;exitDy=0;entryX=0;entryY=0.5;entryDx=0;entryDy=0;" parent="1" source="9_uhdU1WOZ26FYubUej9-156" target="9_uhdU1WOZ26FYubUej9-175" edge="1">
          <mxGeometry relative="1" as="geometry" />
        </mxCell>
        <mxCell id="9_uhdU1WOZ26FYubUej9-156" value="" style="ellipse;whiteSpace=wrap;html=1;aspect=fixed;" parent="1" vertex="1">
          <mxGeometry x="-145.5" y="1464.5" width="55.5" height="55.5" as="geometry" />
        </mxCell>
        <mxCell id="9_uhdU1WOZ26FYubUej9-182" style="edgeStyle=orthogonalEdgeStyle;rounded=0;orthogonalLoop=1;jettySize=auto;html=1;exitX=0.5;exitY=1;exitDx=0;exitDy=0;" parent="1" source="9_uhdU1WOZ26FYubUej9-157" edge="1">
          <mxGeometry relative="1" as="geometry">
            <mxPoint y="2080" as="targetPoint" />
            <Array as="points">
              <mxPoint x="-319" y="2080" />
              <mxPoint x="-145" y="2080" />
            </Array>
          </mxGeometry>
        </mxCell>
        <mxCell id="9_uhdU1WOZ26FYubUej9-184" style="edgeStyle=orthogonalEdgeStyle;rounded=0;orthogonalLoop=1;jettySize=auto;html=1;exitX=0;exitY=1;exitDx=0;exitDy=0;entryX=0;entryY=0.5;entryDx=0;entryDy=0;" parent="1" source="9_uhdU1WOZ26FYubUej9-157" target="9_uhdU1WOZ26FYubUej9-183" edge="1">
          <mxGeometry relative="1" as="geometry">
            <Array as="points">
              <mxPoint x="-340" y="2188" />
            </Array>
          </mxGeometry>
        </mxCell>
        <mxCell id="9_uhdU1WOZ26FYubUej9-157" value="" style="ellipse;whiteSpace=wrap;html=1;aspect=fixed;" parent="1" vertex="1">
          <mxGeometry x="-346.75" y="1464.75" width="55.5" height="55.5" as="geometry" />
        </mxCell>
        <mxCell id="9_uhdU1WOZ26FYubUej9-159" value="" style="endArrow=classic;html=1;rounded=0;exitX=1;exitY=0.5;exitDx=0;exitDy=0;entryX=0;entryY=0.5;entryDx=0;entryDy=0;" parent="1" source="9_uhdU1WOZ26FYubUej9-157" target="9_uhdU1WOZ26FYubUej9-156" edge="1">
          <mxGeometry width="50" height="50" relative="1" as="geometry">
            <mxPoint x="-387.75" y="1702" as="sourcePoint" />
            <mxPoint x="-147.75" y="1492" as="targetPoint" />
          </mxGeometry>
        </mxCell>
        <mxCell id="9_uhdU1WOZ26FYubUej9-160" value="&amp;lt;" style="text;strokeColor=none;fillColor=none;html=1;fontSize=24;fontStyle=1;verticalAlign=middle;align=center;" parent="1" vertex="1">
          <mxGeometry x="-277.75" y="1452" width="100" height="40" as="geometry" />
        </mxCell>
        <mxCell id="9_uhdU1WOZ26FYubUej9-139" value="17&lt;span style=&quot;color: rgba(0, 0, 0, 0); font-family: monospace; font-size: 0px; font-weight: 400; text-align: start;&quot;&gt;%3CmxGraphModel%3E%3Croot%3E%3CmxCell%20id%3D%220%22%2F%3E%3CmxCell%20id%3D%221%22%20parent%3D%220%22%2F%3E%3CmxCell%20id%3D%222%22%20value%3D%2210%22%20style%3D%22text%3BstrokeColor%3Dnone%3BfillColor%3Dnone%3Bhtml%3D1%3BfontSize%3D24%3BfontStyle%3D1%3BverticalAlign%3Dmiddle%3Balign%3Dcenter%3B%22%20vertex%3D%221%22%20parent%3D%221%22%3E%3CmxGeometry%20x%3D%22104.25%22%20y%3D%22707.75%22%20width%3D%22100%22%20height%3D%2240%22%20as%3D%22geometry%22%2F%3E%3C%2FmxCell%3E%3C%2Froot%3E%3C%2FmxGraphModel%3E&lt;/span&gt;" style="text;strokeColor=none;fillColor=none;html=1;fontSize=24;fontStyle=1;verticalAlign=middle;align=center;" parent="1" vertex="1">
          <mxGeometry x="-391.25" y="1115" width="100" height="40" as="geometry" />
        </mxCell>
        <mxCell id="9_uhdU1WOZ26FYubUej9-173" value="" style="ellipse;shape=doubleEllipse;whiteSpace=wrap;html=1;aspect=fixed;" parent="1" vertex="1">
          <mxGeometry x="51.75" y="1600" width="61" height="61" as="geometry" />
        </mxCell>
        <mxCell id="9_uhdU1WOZ26FYubUej9-175" value="" style="ellipse;shape=doubleEllipse;whiteSpace=wrap;html=1;aspect=fixed;" parent="1" vertex="1">
          <mxGeometry x="51.75" y="1730" width="61" height="61" as="geometry" />
        </mxCell>
        <mxCell id="9_uhdU1WOZ26FYubUej9-177" value="" style="ellipse;shape=doubleEllipse;whiteSpace=wrap;html=1;aspect=fixed;" parent="1" vertex="1">
          <mxGeometry x="51.75" y="1876.75" width="61" height="61" as="geometry" />
        </mxCell>
        <mxCell id="9_uhdU1WOZ26FYubUej9-202" style="edgeStyle=orthogonalEdgeStyle;rounded=0;orthogonalLoop=1;jettySize=auto;html=1;exitX=0.5;exitY=1;exitDx=0;exitDy=0;entryX=0;entryY=0.5;entryDx=0;entryDy=0;" parent="1" source="9_uhdU1WOZ26FYubUej9-183" target="9_uhdU1WOZ26FYubUej9-201" edge="1">
          <mxGeometry relative="1" as="geometry" />
        </mxCell>
        <mxCell id="9_uhdU1WOZ26FYubUej9-203" style="edgeStyle=orthogonalEdgeStyle;rounded=0;orthogonalLoop=1;jettySize=auto;html=1;exitX=1;exitY=0.5;exitDx=0;exitDy=0;entryX=0;entryY=0.5;entryDx=0;entryDy=0;" parent="1" source="9_uhdU1WOZ26FYubUej9-183" target="9_uhdU1WOZ26FYubUej9-200" edge="1">
          <mxGeometry relative="1" as="geometry" />
        </mxCell>
        <mxCell id="9_uhdU1WOZ26FYubUej9-183" value="" style="ellipse;whiteSpace=wrap;html=1;aspect=fixed;" parent="1" vertex="1">
          <mxGeometry x="-145.5" y="2160" width="55.5" height="55.5" as="geometry" />
        </mxCell>
        <mxCell id="9_uhdU1WOZ26FYubUej9-189" style="edgeStyle=orthogonalEdgeStyle;rounded=0;orthogonalLoop=1;jettySize=auto;html=1;entryX=0;entryY=0.5;entryDx=0;entryDy=0;" parent="1" target="hFTQxjm5SU2RdiJBIE2X-9" edge="1">
          <mxGeometry relative="1" as="geometry">
            <mxPoint x="223" y="1291" as="targetPoint" />
            <Array as="points">
              <mxPoint x="80" y="1492" />
              <mxPoint x="80" y="1290" />
              <mxPoint x="1490" y="1290" />
            </Array>
            <mxPoint x="-90" y="1492" as="sourcePoint" />
          </mxGeometry>
        </mxCell>
        <mxCell id="9_uhdU1WOZ26FYubUej9-191" value="other" style="text;strokeColor=none;fillColor=none;html=1;fontSize=24;fontStyle=1;verticalAlign=middle;align=center;" parent="1" vertex="1">
          <mxGeometry x="610" y="1240" width="100" height="40" as="geometry" />
        </mxCell>
        <mxCell id="9_uhdU1WOZ26FYubUej9-194" value="&amp;gt;" style="text;strokeColor=none;fillColor=none;html=1;fontSize=24;fontStyle=1;verticalAlign=middle;align=center;" parent="1" vertex="1">
          <mxGeometry x="-70" y="1590" width="100" height="40" as="geometry" />
        </mxCell>
        <mxCell id="9_uhdU1WOZ26FYubUej9-195" value="=" style="text;strokeColor=none;fillColor=none;html=1;fontSize=24;fontStyle=1;verticalAlign=middle;align=center;" parent="1" vertex="1">
          <mxGeometry x="-70" y="1714" width="100" height="40" as="geometry" />
        </mxCell>
        <mxCell id="9_uhdU1WOZ26FYubUej9-196" value="other" style="text;strokeColor=none;fillColor=none;html=1;fontSize=24;fontStyle=1;verticalAlign=middle;align=center;" parent="1" vertex="1">
          <mxGeometry x="-70" y="1860" width="100" height="40" as="geometry" />
        </mxCell>
        <mxCell id="9_uhdU1WOZ26FYubUej9-197" value="&lt;font style=&quot;font-size: 36px;&quot;&gt;*&lt;/font&gt;" style="text;html=1;align=center;verticalAlign=middle;whiteSpace=wrap;rounded=0;" parent="1" vertex="1">
          <mxGeometry x="112.75" y="1860" width="60" height="30" as="geometry" />
        </mxCell>
        <mxCell id="9_uhdU1WOZ26FYubUej9-198" value="=" style="text;strokeColor=none;fillColor=none;html=1;fontSize=24;fontStyle=1;verticalAlign=middle;align=center;" parent="1" vertex="1">
          <mxGeometry x="-220" y="2030" width="100" height="40" as="geometry" />
        </mxCell>
        <mxCell id="9_uhdU1WOZ26FYubUej9-200" value="" style="ellipse;shape=doubleEllipse;whiteSpace=wrap;html=1;aspect=fixed;" parent="1" vertex="1">
          <mxGeometry x="51.75" y="2157.25" width="61" height="61" as="geometry" />
        </mxCell>
        <mxCell id="9_uhdU1WOZ26FYubUej9-201" value="" style="ellipse;shape=doubleEllipse;whiteSpace=wrap;html=1;aspect=fixed;" parent="1" vertex="1">
          <mxGeometry x="51.75" y="2338" width="61" height="61" as="geometry" />
        </mxCell>
        <mxCell id="9_uhdU1WOZ26FYubUej9-204" value="&amp;gt;" style="text;strokeColor=none;fillColor=none;html=1;fontSize=24;fontStyle=1;verticalAlign=middle;align=center;" parent="1" vertex="1">
          <mxGeometry x="-291.25" y="2150" width="100" height="40" as="geometry" />
        </mxCell>
        <mxCell id="9_uhdU1WOZ26FYubUej9-205" value="=" style="text;strokeColor=none;fillColor=none;html=1;fontSize=24;fontStyle=1;verticalAlign=middle;align=center;" parent="1" vertex="1">
          <mxGeometry x="-70" y="2150" width="100" height="40" as="geometry" />
        </mxCell>
        <mxCell id="9_uhdU1WOZ26FYubUej9-206" value="other" style="text;strokeColor=none;fillColor=none;html=1;fontSize=24;fontStyle=1;verticalAlign=middle;align=center;" parent="1" vertex="1">
          <mxGeometry x="-70" y="2330" width="100" height="40" as="geometry" />
        </mxCell>
        <mxCell id="9_uhdU1WOZ26FYubUej9-208" value="&lt;font style=&quot;font-size: 36px;&quot;&gt;*&lt;/font&gt;" style="text;html=1;align=center;verticalAlign=middle;whiteSpace=wrap;rounded=0;" parent="1" vertex="1">
          <mxGeometry x="114.25" y="2320" width="60" height="30" as="geometry" />
        </mxCell>
        <mxCell id="9_uhdU1WOZ26FYubUej9-209" value="20" style="text;strokeColor=none;fillColor=none;html=1;fontSize=24;fontStyle=1;verticalAlign=middle;align=center;" parent="1" vertex="1">
          <mxGeometry x="-369" y="1472.5" width="100" height="40" as="geometry" />
        </mxCell>
        <mxCell id="9_uhdU1WOZ26FYubUej9-210" value="21" style="text;strokeColor=none;fillColor=none;html=1;fontSize=24;fontStyle=1;verticalAlign=middle;align=center;" parent="1" vertex="1">
          <mxGeometry x="-167.75" y="1472.25" width="100" height="40" as="geometry" />
        </mxCell>
        <mxCell id="9_uhdU1WOZ26FYubUej9-214" value="25" style="text;strokeColor=none;fillColor=none;html=1;fontSize=24;fontStyle=1;verticalAlign=middle;align=center;" parent="1" vertex="1">
          <mxGeometry x="32.25" y="1610.5" width="100" height="40" as="geometry" />
        </mxCell>
        <mxCell id="9_uhdU1WOZ26FYubUej9-215" value="26" style="text;strokeColor=none;fillColor=none;html=1;fontSize=24;fontStyle=1;verticalAlign=middle;align=center;" parent="1" vertex="1">
          <mxGeometry x="32.25" y="1740.5" width="100" height="40" as="geometry" />
        </mxCell>
        <mxCell id="9_uhdU1WOZ26FYubUej9-216" value="27" style="text;strokeColor=none;fillColor=none;html=1;fontSize=24;fontStyle=1;verticalAlign=middle;align=center;" parent="1" vertex="1">
          <mxGeometry x="32.25" y="1890" width="100" height="40" as="geometry" />
        </mxCell>
        <mxCell id="9_uhdU1WOZ26FYubUej9-218" value="31" style="text;strokeColor=none;fillColor=none;html=1;fontSize=24;fontStyle=1;verticalAlign=middle;align=center;" parent="1" vertex="1">
          <mxGeometry x="-167.75" y="2167.75" width="100" height="40" as="geometry" />
        </mxCell>
        <mxCell id="9_uhdU1WOZ26FYubUej9-219" value="32" style="text;strokeColor=none;fillColor=none;html=1;fontSize=24;fontStyle=1;verticalAlign=middle;align=center;" parent="1" vertex="1">
          <mxGeometry x="32.25" y="2167.75" width="100" height="40" as="geometry" />
        </mxCell>
        <mxCell id="9_uhdU1WOZ26FYubUej9-220" value="33" style="text;strokeColor=none;fillColor=none;html=1;fontSize=24;fontStyle=1;verticalAlign=middle;align=center;" parent="1" vertex="1">
          <mxGeometry x="32.25" y="2350" width="100" height="40" as="geometry" />
        </mxCell>
        <mxCell id="9_uhdU1WOZ26FYubUej9-222" value="return&amp;lt;relop, NE&amp;gt;" style="text;strokeColor=none;fillColor=none;html=1;fontSize=24;fontStyle=1;verticalAlign=middle;align=center;" parent="1" vertex="1">
          <mxGeometry x="207.25" y="1610.5" width="100" height="40" as="geometry" />
        </mxCell>
        <mxCell id="9_uhdU1WOZ26FYubUej9-223" value="return&amp;lt;relop, LE&amp;gt;" style="text;strokeColor=none;fillColor=none;html=1;fontSize=24;fontStyle=1;verticalAlign=middle;align=center;" parent="1" vertex="1">
          <mxGeometry x="200" y="1740.5" width="100" height="40" as="geometry" />
        </mxCell>
        <mxCell id="9_uhdU1WOZ26FYubUej9-224" value="return&amp;lt;relop, LT&amp;gt;" style="text;strokeColor=none;fillColor=none;html=1;fontSize=24;fontStyle=1;verticalAlign=middle;align=center;" parent="1" vertex="1">
          <mxGeometry x="200" y="1890" width="100" height="40" as="geometry" />
        </mxCell>
        <mxCell id="9_uhdU1WOZ26FYubUej9-226" value="return&amp;lt;relop, GE&amp;gt;" style="text;strokeColor=none;fillColor=none;html=1;fontSize=24;fontStyle=1;verticalAlign=middle;align=center;" parent="1" vertex="1">
          <mxGeometry x="207.25" y="2167.75" width="100" height="40" as="geometry" />
        </mxCell>
        <mxCell id="9_uhdU1WOZ26FYubUej9-227" value="return&amp;lt;relop, GT&amp;gt;" style="text;strokeColor=none;fillColor=none;html=1;fontSize=24;fontStyle=1;verticalAlign=middle;align=center;" parent="1" vertex="1">
          <mxGeometry x="203.75" y="2348.5" width="100" height="40" as="geometry" />
        </mxCell>
        <mxCell id="9_uhdU1WOZ26FYubUej9-228" value="return &amp;lt;separator token&amp;gt;" style="text;strokeColor=none;fillColor=none;html=1;fontSize=24;fontStyle=1;verticalAlign=middle;align=center;" parent="1" vertex="1">
          <mxGeometry x="60.5" y="1115" width="100" height="40" as="geometry" />
        </mxCell>
        <mxCell id="9_uhdU1WOZ26FYubUej9-230" value="" style="rounded=1;whiteSpace=wrap;html=1;" parent="1" vertex="1">
          <mxGeometry x="1044" width="610" height="300" as="geometry" />
        </mxCell>
        <mxCell id="9_uhdU1WOZ26FYubUej9-231" value="&lt;p style=&quot;margin: 0cm 0cm 0cm 36pt; line-height: 18.4px; font-size: 12pt; font-family: Aptos, sans-serif; text-align: start; text-indent: -18pt;&quot; class=&quot;MsoListParagraphCxSpFirst&quot;&gt;&lt;span style=&quot;font-size: 18pt; line-height: 27.6px;&quot;&gt;1.&lt;span style=&quot;font-variant-numeric: normal; font-variant-east-asian: normal; font-variant-alternates: normal; font-size-adjust: none; font-kerning: auto; font-optical-sizing: auto; font-feature-settings: normal; font-variation-settings: normal; font-variant-position: normal; font-stretch: normal; font-size: 7pt; line-height: normal; font-family: &amp;quot;Times New Roman&amp;quot;;&quot;&gt;&amp;nbsp;&amp;nbsp; &lt;/span&gt;&lt;/span&gt;&lt;span style=&quot;font-size: 18pt; line-height: 27.6px;&quot;&gt;delim: [ \n\t\r]&lt;/span&gt;&lt;/p&gt;&lt;p style=&quot;margin: 0cm 0cm 0cm 36pt; line-height: 18.4px; font-size: 12pt; font-family: Aptos, sans-serif; text-align: start; text-indent: -18pt;&quot; class=&quot;MsoListParagraphCxSpMiddle&quot;&gt;&lt;span style=&quot;font-size: 18pt; line-height: 27.6px;&quot;&gt;2.&lt;span style=&quot;font-variant-numeric: normal; font-variant-east-asian: normal; font-variant-alternates: normal; font-size-adjust: none; font-kerning: auto; font-optical-sizing: auto; font-feature-settings: normal; font-variation-settings: normal; font-variant-position: normal; font-stretch: normal; font-size: 7pt; line-height: normal; font-family: &amp;quot;Times New Roman&amp;quot;;&quot;&gt;&amp;nbsp;&amp;nbsp; &lt;/span&gt;&lt;/span&gt;&lt;b&gt;&lt;span style=&quot;font-size: 18pt; line-height: 27.6px;&quot;&gt;digit&lt;/span&gt;&lt;/b&gt;&lt;span style=&quot;font-size: 18pt; line-height: 27.6px;&quot;&gt;: [0-9]&lt;/span&gt;&lt;/p&gt;&lt;p style=&quot;margin: 0cm 0cm 0cm 36pt; line-height: 18.4px; font-size: 12pt; font-family: Aptos, sans-serif; text-align: start; text-indent: -18pt;&quot; class=&quot;MsoListParagraphCxSpMiddle&quot;&gt;&lt;span style=&quot;font-size: 18pt; line-height: 27.6px;&quot;&gt;3.&lt;span style=&quot;font-variant-numeric: normal; font-variant-east-asian: normal; font-variant-alternates: normal; font-size-adjust: none; font-kerning: auto; font-optical-sizing: auto; font-feature-settings: normal; font-variation-settings: normal; font-variant-position: normal; font-stretch: normal; font-size: 7pt; line-height: normal; font-family: &amp;quot;Times New Roman&amp;quot;;&quot;&gt;&amp;nbsp;&amp;nbsp; &lt;/span&gt;&lt;/span&gt;&lt;b&gt;&lt;span style=&quot;font-size: 18pt; line-height: 27.6px;&quot;&gt;RDigit&lt;/span&gt;&lt;/b&gt;&lt;span style=&quot;font-size: 18pt; line-height: 27.6px;&quot;&gt;: digit | -&lt;/span&gt;&lt;/p&gt;&lt;p style=&quot;margin: 0cm 0cm 0cm 36pt; line-height: 18.4px; font-size: 12pt; font-family: Aptos, sans-serif; text-align: start; text-indent: -18pt;&quot; class=&quot;MsoListParagraphCxSpMiddle&quot;&gt;&lt;span style=&quot;font-size: 18pt; line-height: 27.6px;&quot;&gt;4.&lt;span style=&quot;font-variant-numeric: normal; font-variant-east-asian: normal; font-variant-alternates: normal; font-size-adjust: none; font-kerning: auto; font-optical-sizing: auto; font-feature-settings: normal; font-variation-settings: normal; font-variant-position: normal; font-stretch: normal; font-size: 7pt; line-height: normal; font-family: &amp;quot;Times New Roman&amp;quot;;&quot;&gt;&amp;nbsp;&amp;nbsp; &lt;/span&gt;&lt;/span&gt;&lt;b&gt;&lt;span style=&quot;font-size: 18pt; line-height: 27.6px;&quot;&gt;digits&lt;/span&gt;&lt;/b&gt;&lt;span style=&quot;font-size: 18pt; line-height: 27.6px;&quot;&gt;: digit&lt;sup&gt;*&lt;/sup&gt;&lt;/span&gt;&lt;/p&gt;&lt;p style=&quot;margin: 0cm 0cm 0cm 36pt; line-height: 18.4px; font-size: 12pt; font-family: Aptos, sans-serif; text-align: start; text-indent: -18pt;&quot; class=&quot;MsoListParagraphCxSpMiddle&quot;&gt;&lt;span style=&quot;font-size: 18pt; line-height: 27.6px;&quot; lang=&quot;EN-US&quot;&gt;5.&lt;span style=&quot;font-variant-numeric: normal; font-variant-east-asian: normal; font-variant-alternates: normal; font-size-adjust: none; font-kerning: auto; font-optical-sizing: auto; font-feature-settings: normal; font-variation-settings: normal; font-variant-position: normal; font-stretch: normal; font-size: 7pt; line-height: normal; font-family: &amp;quot;Times New Roman&amp;quot;;&quot;&gt;&amp;nbsp;&amp;nbsp; &lt;/span&gt;&lt;/span&gt;&lt;span style=&quot;font-size: 18pt; line-height: 27.6px;&quot; lang=&quot;EN-US&quot;&gt;letter_: [A-Za-z_]&lt;/span&gt;&lt;/p&gt;&lt;p style=&quot;margin: 0cm 0cm 0cm 36pt; line-height: 18.4px; font-size: 12pt; font-family: Aptos, sans-serif; text-align: start; text-indent: -18pt;&quot; class=&quot;MsoListParagraphCxSpMiddle&quot;&gt;&lt;span style=&quot;font-size: 18pt; line-height: 27.6px;&quot; lang=&quot;EN-US&quot;&gt;6.&lt;span style=&quot;font-variant-numeric: normal; font-variant-east-asian: normal; font-variant-alternates: normal; font-size-adjust: none; font-kerning: auto; font-optical-sizing: auto; font-feature-settings: normal; font-variation-settings: normal; font-variant-position: normal; font-stretch: normal; font-size: 7pt; line-height: normal; font-family: &amp;quot;Times New Roman&amp;quot;;&quot;&gt;&amp;nbsp;&amp;nbsp; &lt;/span&gt;&lt;/span&gt;&lt;span style=&quot;font-size: 18pt; line-height: 27.6px;&quot; lang=&quot;EN-US&quot;&gt;number:&amp;nbsp;digits&lt;/span&gt;&lt;/p&gt;&lt;p style=&quot;margin: 0cm 0cm 8pt 36pt; line-height: 18.4px; font-size: 12pt; font-family: Aptos, sans-serif; text-align: start; text-indent: -18pt;&quot; class=&quot;MsoListParagraphCxSpLast&quot;&gt;&lt;span style=&quot;font-size: 18pt; line-height: 27.6px;&quot;&gt;7.&lt;span style=&quot;font-variant-numeric: normal; font-variant-east-asian: normal; font-variant-alternates: normal; font-size-adjust: none; font-kerning: auto; font-optical-sizing: auto; font-feature-settings: normal; font-variation-settings: normal; font-variant-position: normal; font-stretch: normal; font-size: 7pt; line-height: normal; font-family: &amp;quot;Times New Roman&amp;quot;;&quot;&gt;&amp;nbsp;&amp;nbsp; &lt;/span&gt;&lt;/span&gt;&lt;span style=&quot;font-size: 18pt; line-height: 27.6px;&quot;&gt;separator: [(){},;]&lt;/span&gt;&lt;/p&gt;&lt;p style=&quot;margin: 0cm 0cm 8pt 36pt; line-height: 18.4px; font-size: 12pt; font-family: Aptos, sans-serif; text-align: start; text-indent: -18pt;&quot; class=&quot;MsoNormal&quot;&gt;&lt;span style=&quot;font-size: 18pt; line-height: 27.6px;&quot;&gt;8.&lt;span style=&quot;font-variant-numeric: normal; font-variant-east-asian: normal; font-variant-alternates: normal; font-size-adjust: none; font-kerning: auto; font-optical-sizing: auto; font-feature-settings: normal; font-variation-settings: normal; font-variant-position: normal; font-stretch: normal; font-size: 7pt; line-height: normal; font-family: &amp;quot;Times New Roman&amp;quot;;&quot;&gt;&amp;nbsp;&amp;nbsp; &lt;/span&gt;&lt;/span&gt;&lt;b&gt;&lt;span style=&quot;font-size: 18pt; line-height: 27.6px;&quot;&gt;optionalFraction&lt;/span&gt;&lt;/b&gt;&lt;span style=&quot;font-size: 18pt; line-height: 27.6px;&quot;&gt;: (.digits | ε)&lt;/span&gt;&lt;/p&gt;&lt;p style=&quot;margin: 0cm 0cm 8pt 36pt; line-height: 18.4px; font-size: 12pt; font-family: Aptos, sans-serif; text-align: start; text-indent: -18pt;&quot; class=&quot;MsoNormal&quot;&gt;&lt;span style=&quot;font-size: 18pt; line-height: 27.6px;&quot; lang=&quot;EN-US&quot;&gt;9.&lt;span style=&quot;font-variant-numeric: normal; font-variant-east-asian: normal; font-variant-alternates: normal; font-size-adjust: none; font-kerning: auto; font-optical-sizing: auto; font-feature-settings: normal; font-variation-settings: normal; font-variant-position: normal; font-stretch: normal; font-size: 7pt; line-height: normal; font-family: &amp;quot;Times New Roman&amp;quot;;&quot;&gt;&amp;nbsp;&amp;nbsp; &lt;/span&gt;&lt;/span&gt;&lt;b&gt;&lt;span style=&quot;font-size: 18pt; line-height: 27.6px;&quot; lang=&quot;EN-US&quot;&gt;optionalExp&lt;/span&gt;&lt;/b&gt;&lt;span style=&quot;font-size: 18pt; line-height: 27.6px;&quot; lang=&quot;EN-US&quot;&gt;: (E(-|+|&lt;/span&gt;&lt;span style=&quot;font-size: 18pt; line-height: 27.6px;&quot;&gt;ε&lt;/span&gt;&lt;span style=&quot;font-size: 18pt; line-height: 27.6px;&quot; lang=&quot;EN-US&quot;&gt;) digits | &lt;/span&gt;&lt;span style=&quot;font-size: 18pt; line-height: 27.6px;&quot;&gt;ε&lt;/span&gt;&lt;span style=&quot;font-size: 18pt; line-height: 27.6px;&quot; lang=&quot;EN-US&quot;&gt;)&lt;/span&gt;&lt;/p&gt;" style="text;html=1;align=center;verticalAlign=middle;whiteSpace=wrap;rounded=0;" parent="1" vertex="1">
          <mxGeometry x="950" y="133.5" width="619.5" height="30" as="geometry" />
        </mxCell>
        <mxCell id="9_uhdU1WOZ26FYubUej9-239" value="other" style="text;strokeColor=none;fillColor=none;html=1;fontSize=24;fontStyle=1;verticalAlign=middle;align=center;" parent="1" vertex="1">
          <mxGeometry x="-306" y="-220" width="100" height="40" as="geometry" />
        </mxCell>
        <mxCell id="hFTQxjm5SU2RdiJBIE2X-1" value="" style="ellipse;shape=doubleEllipse;whiteSpace=wrap;html=1;aspect=fixed;" parent="1" vertex="1">
          <mxGeometry x="-0.5" y="2608" width="61" height="61" as="geometry" />
        </mxCell>
        <mxCell id="hFTQxjm5SU2RdiJBIE2X-2" value="EOF" style="text;strokeColor=none;fillColor=none;html=1;fontSize=24;fontStyle=1;verticalAlign=middle;align=center;" parent="1" vertex="1">
          <mxGeometry x="-379" y="2600" width="100" height="40" as="geometry" />
        </mxCell>
        <mxCell id="hFTQxjm5SU2RdiJBIE2X-3" value="&lt;font style=&quot;font-size: 36px;&quot;&gt;*&lt;/font&gt;" style="text;html=1;align=center;verticalAlign=middle;whiteSpace=wrap;rounded=0;" parent="1" vertex="1">
          <mxGeometry x="62" y="2590" width="60" height="30" as="geometry" />
        </mxCell>
        <mxCell id="hFTQxjm5SU2RdiJBIE2X-4" value="34" style="text;strokeColor=none;fillColor=none;html=1;fontSize=24;fontStyle=1;verticalAlign=middle;align=center;" parent="1" vertex="1">
          <mxGeometry x="-19.5" y="2620" width="100" height="40" as="geometry" />
        </mxCell>
        <mxCell id="hFTQxjm5SU2RdiJBIE2X-9" value="" style="ellipse;shape=doubleEllipse;whiteSpace=wrap;html=1;aspect=fixed;" parent="1" vertex="1">
          <mxGeometry x="1489.5" y="722.75" width="61" height="61" as="geometry" />
        </mxCell>
        <mxCell id="hFTQxjm5SU2RdiJBIE2X-10" value="35" style="text;strokeColor=none;fillColor=none;html=1;fontSize=24;fontStyle=1;verticalAlign=middle;align=center;" parent="1" vertex="1">
          <mxGeometry x="1470" y="733.25" width="100" height="40" as="geometry" />
        </mxCell>
        <mxCell id="hFTQxjm5SU2RdiJBIE2X-11" value="Nodo pozzo di fail" style="text;strokeColor=none;fillColor=none;html=1;fontSize=24;fontStyle=1;verticalAlign=middle;align=center;" parent="1" vertex="1">
          <mxGeometry x="1554" y="672.25" width="100" height="40" as="geometry" />
        </mxCell>
        <mxCell id="hFTQxjm5SU2RdiJBIE2X-21" value="18" style="text;strokeColor=none;fillColor=none;html=1;fontSize=24;fontStyle=1;verticalAlign=middle;align=center;" parent="1" vertex="1">
          <mxGeometry x="-162" y="1118.5" width="100" height="40" as="geometry" />
        </mxCell>
        <mxCell id="wq8HF3SNeHBSUHYkV_9S-1" value="return &amp;lt;NUM, valore_numerico&amp;gt;" style="text;strokeColor=none;fillColor=none;html=1;fontSize=24;fontStyle=1;verticalAlign=middle;align=center;" vertex="1" parent="1">
          <mxGeometry x="1170" y="783.75" width="79" height="26.25" as="geometry" />
        </mxCell>
        <mxCell id="wq8HF3SNeHBSUHYkV_9S-5" value="" style="ellipse;whiteSpace=wrap;html=1;aspect=fixed;" vertex="1" parent="1">
          <mxGeometry x="2.75" y="2050" width="55.5" height="55.5" as="geometry" />
        </mxCell>
        <mxCell id="wq8HF3SNeHBSUHYkV_9S-7" value="28" style="text;strokeColor=none;fillColor=none;html=1;fontSize=24;fontStyle=1;verticalAlign=middle;align=center;" vertex="1" parent="1">
          <mxGeometry x="-19.5" y="2057.75" width="100" height="40" as="geometry" />
        </mxCell>
        <mxCell id="wq8HF3SNeHBSUHYkV_9S-9" value="" style="ellipse;shape=doubleEllipse;whiteSpace=wrap;html=1;aspect=fixed;" vertex="1" parent="1">
          <mxGeometry x="589.5" y="1996.75" width="61" height="61" as="geometry" />
        </mxCell>
        <mxCell id="wq8HF3SNeHBSUHYkV_9S-10" value="29" style="text;strokeColor=none;fillColor=none;html=1;fontSize=24;fontStyle=1;verticalAlign=middle;align=center;" vertex="1" parent="1">
          <mxGeometry x="570" y="2007.25" width="100" height="40" as="geometry" />
        </mxCell>
        <mxCell id="wq8HF3SNeHBSUHYkV_9S-11" value="return &amp;lt;ASSIGN&amp;gt;" style="text;strokeColor=none;fillColor=none;html=1;fontSize=24;fontStyle=1;verticalAlign=middle;align=center;" vertex="1" parent="1">
          <mxGeometry x="827" y="2007.25" width="100" height="40" as="geometry" />
        </mxCell>
        <mxCell id="wq8HF3SNeHBSUHYkV_9S-12" value="" style="ellipse;shape=doubleEllipse;whiteSpace=wrap;html=1;aspect=fixed;" vertex="1" parent="1">
          <mxGeometry x="570" y="2105.5" width="61" height="61" as="geometry" />
        </mxCell>
        <mxCell id="wq8HF3SNeHBSUHYkV_9S-13" value="30" style="text;strokeColor=none;fillColor=none;html=1;fontSize=24;fontStyle=1;verticalAlign=middle;align=center;" vertex="1" parent="1">
          <mxGeometry x="550.5" y="2116" width="100" height="40" as="geometry" />
        </mxCell>
        <mxCell id="wq8HF3SNeHBSUHYkV_9S-14" value="return &amp;lt;RELOP, EQ&amp;gt;" style="text;strokeColor=none;fillColor=none;html=1;fontSize=24;fontStyle=1;verticalAlign=middle;align=center;" vertex="1" parent="1">
          <mxGeometry x="760" y="2116" width="100" height="40" as="geometry" />
        </mxCell>
        <mxCell id="wq8HF3SNeHBSUHYkV_9S-15" value="" style="endArrow=classic;html=1;rounded=0;exitX=0.5;exitY=0;exitDx=0;exitDy=0;" edge="1" parent="1" source="wq8HF3SNeHBSUHYkV_9S-5">
          <mxGeometry width="50" height="50" relative="1" as="geometry">
            <mxPoint x="100" y="1930" as="sourcePoint" />
            <mxPoint x="590" y="2027" as="targetPoint" />
            <Array as="points">
              <mxPoint x="31" y="2027" />
            </Array>
          </mxGeometry>
        </mxCell>
        <mxCell id="wq8HF3SNeHBSUHYkV_9S-16" value="other" style="text;strokeColor=none;fillColor=none;html=1;fontSize=24;fontStyle=1;verticalAlign=middle;align=center;" vertex="1" parent="1">
          <mxGeometry x="216.5" y="1980" width="100" height="40" as="geometry" />
        </mxCell>
        <mxCell id="wq8HF3SNeHBSUHYkV_9S-18" value="&lt;font style=&quot;font-size: 36px;&quot;&gt;*&lt;/font&gt;" style="text;html=1;align=center;verticalAlign=middle;whiteSpace=wrap;rounded=0;" vertex="1" parent="1">
          <mxGeometry x="650.5" y="1977.25" width="60" height="30" as="geometry" />
        </mxCell>
        <mxCell id="wq8HF3SNeHBSUHYkV_9S-19" value="" style="endArrow=classic;html=1;rounded=0;exitX=0.5;exitY=1;exitDx=0;exitDy=0;" edge="1" parent="1" source="wq8HF3SNeHBSUHYkV_9S-5">
          <mxGeometry width="50" height="50" relative="1" as="geometry">
            <mxPoint x="31" y="2110" as="sourcePoint" />
            <mxPoint x="570" y="2137" as="targetPoint" />
            <Array as="points">
              <mxPoint x="31" y="2137" />
            </Array>
          </mxGeometry>
        </mxCell>
        <mxCell id="wq8HF3SNeHBSUHYkV_9S-20" value="=" style="text;strokeColor=none;fillColor=none;html=1;fontSize=24;fontStyle=1;verticalAlign=middle;align=center;" vertex="1" parent="1">
          <mxGeometry x="240" y="2097.75" width="100" height="40" as="geometry" />
        </mxCell>
      </root>
    </mxGraphModel>
  </diagram>
</mxfile>
